<?xml version="1.0" encoding="utf-8"?>
<!-- Generator: Adobe Illustrator 19.2.0, SVG Export Plug-In . SVG Version: 6.00 Build 0)  -->
<svg version="1.1" id="Layer_1" xmlns:sketch="http://www.bohemiancoding.com/sketch/ns"
	 xmlns="http://www.w3.org/2000/svg" xmlns:xlink="http://www.w3.org/1999/xlink" x="0px" y="0px" viewBox="0 0 200 48"
	 style="enable-background:new 0 0 200 48;" xml:space="preserve">
<style type="text/css">
	.st0{fill:#3D474D;}
	.st1{fill:#00AAFF;}
	.st2{fill:#FFFFFF;stroke:#000000;stroke-width:1.0312;stroke-opacity:0.1;}
	.st3{fill:#00D5FF;}
	.st4{fill:#00A9FF;}
	.st5{fill:#00AFFF;}
	.st6{fill:#00B4FF;}
	.st7{fill:#00BAFF;}
	.st8{fill:#00A5F0;}
	.st9{fill:#26C2FF;}
	.st10{fill:#00BCFB;}
	.st11{fill:#00C3FA;}
	.st12{fill:#00B2FB;}
	.st13{fill:#00BDF8;}
	.st14{fill:#00D3FF;}
	.st15{fill:#00D3EE;}
	.st16{fill:#02A3ED;}
	.st17{fill:#03B2FB;}
	.st18{fill:#19C0FF;}
	.st19{fill:#07BCF8;}
	.st20{fill:#07BAED;}
	.st21{fill:#09C5F3;}
	.st22{fill:#0CCAF2;}
	.st23{fill:#0FDAFC;}
	.st24{fill:#0FD3EE;}
	.st25{fill:#11E2F8;}
	.st26{fill:#13DDEB;}
	.st27{fill:#16F8FF;}
	.st28{fill:#16E6E6;}
	.st29{fill:#0FAFFF;}
	.st30{fill:#0EB3FD;}
	.st31{fill:#0DBAFF;}
	.st32{fill:#0CBCF9;}
	.st33{fill:#09C6FF;}
	.st34{fill:#08C4F6;}
	.st35{fill:#07C3ED;}
	.st36{fill:#07D8FF;}
	.st37{fill:#06D1F0;}
	.st38{fill:#05D5EE;}
	.st39{fill:#03D9EC;}
	.st40{fill:#02E3F0;}
	.st41{fill:#01E2E8;}
	.st42{fill:#00F2F2;}
	.st43{fill:#19B2FF;}
	.st44{fill:#1BB8FF;}
	.st45{fill:#33C4FF;}
	.st46{fill:#1CB4EC;}
	.st47{fill:#1FC2F4;}
	.st48{fill:#23D1FF;}
	.st49{fill:#23CAEF;}
	.st50{fill:#22C4E0;}
	.st51{fill:#26D2E9;}
	.st52{fill:#2CECFF;}
	.st53{fill:#29DAE4;}
	.st54{fill:#2BDEE1;}
	.st55{fill:#2CE2DF;}
	.st56{fill:#2FECE0;}
</style>
<title>MeisterTask 2</title>
<desc>Created with Sketch.</desc>
<g id="Logos" sketch:type="MSPage">
	<g id="MeisterTask-2" transform="translate(-470.000000, -57.000000)" sketch:type="MSArtboardGroup">
		<g transform="translate(472.000000, 59.000000)" sketch:type="MSLayerGroup">
			<g id="MeisterTask" transform="translate(52.593750, 7.159091)" sketch:type="MSShapeGroup">
				<path id="meister" class="st0" d="M20.8,24.6l1.6-11.4c0.4-3.1-1.7-5.5-4.8-5.5c-1.9,0-3.8,1-5,2.4c-0.8-1.5-2.4-2.4-4.3-2.4
					c-3.1,0-5.9,2.5-6.4,5.5L0.3,24.6c-0.1,0.6,0.4,1,0.8,1s1-0.3,1.1-1l1.6-11.4C4.1,11.2,6,9.6,8,9.6s3.5,1.6,3.2,3.6L9.6,24.6
					c-0.1,0.7,0.3,1,0.8,1s1-0.3,1.1-1l1.6-11.4c0.3-2,2.1-3.6,4.2-3.6s3.5,1.6,3.2,3.6l-1.6,11.4c-0.1,0.6,0.4,1,0.8,1
					C20.2,25.6,20.7,25.3,20.8,24.6L20.8,24.6z M36.9,16.1l0.3-2.2c0.5-3.4-1.9-6.2-5.4-6.2c-3.5,0-6.6,2.8-7.1,6.2l-0.8,5.9
					c-0.5,3.5,2.3,6.2,5.7,6.2c2,0,4.1-0.7,5.5-2.3c0.2-0.2,0.3-0.4,0.3-0.6c0.1-0.5-0.4-0.9-0.9-0.9c-0.3,0-0.6,0.1-0.9,0.4
					c-1.1,1.2-2.6,1.5-3.8,1.5c-2.5,0-4.4-2-4-4.3l0.4-2.7h9.6C36.3,17,36.8,16.6,36.9,16.1L36.9,16.1z M35.1,15.1h-8.6l0.2-1.3
					c0.3-2.4,2.5-4.3,4.9-4.3s4.1,1.9,3.7,4.3L35.1,15.1z M39.9,24.6l2.2-15.7c0.1-0.6-0.3-1-0.8-1s-1,0.3-1.1,1L38,24.6
					c-0.1,0.6,0.4,1,0.8,1S39.8,25.3,39.9,24.6L39.9,24.6z M40.8,2.5c-0.1,0.7,0.4,1.3,1.1,1.3s1.4-0.6,1.5-1.3s-0.4-1.3-1.1-1.3
					S40.9,1.8,40.8,2.5L40.8,2.5z M53.4,20.9c0.9-6.2-8.3-4.8-7.7-8.7c0.2-1.6,1.7-2.6,3.6-2.6c1.2,0,2.3,0.5,2.9,1.4
					c0.1,0.2,0.1,0.2,0.1,0.2c0.2,0.3,0.4,0.4,0.7,0.4c0.5,0,1.1-0.4,1.1-0.9c0-0.2,0-0.4-0.1-0.5c-0.8-1.6-2.7-2.5-4.5-2.5
					c-2.5,0-5.4,1.5-5.8,4.5c-0.8,5.8,8.4,4.2,7.7,8.7c-0.2,1.7-2,3.1-4.4,3.1c-1.2,0-2.3-0.4-3-1.2c-0.1-0.1-0.1-0.2-0.1-0.2
					c-0.2-0.3-0.4-0.4-0.7-0.4c-0.5,0-1,0.4-1.1,1c0,0.2,0,0.3,0.1,0.5c0.8,1.5,2.9,2.2,4.5,2.2C49.9,25.9,53,24,53.4,20.9
					L53.4,20.9z M65.8,23.8c0.1-0.5-0.3-1-0.8-1c-0.7,0-1.5,1.1-3.3,1.1c-1.9,0-2.8-1.2-2.6-2.6l1.6-11.5h5.7c0.6,0,1-0.5,1.1-1
					c0.1-0.5-0.2-1-0.8-1h-5.7l0.5-4c0.1-0.6-0.3-1-0.8-1s-1,0.3-1.1,1l-0.5,4h-2.9c-0.6,0-1.1,0.5-1.1,1c-0.1,0.5,0.2,1,0.8,1h2.9
					l-1.6,11.5c-0.4,2.5,1.4,4.5,4.2,4.5c1.2,0,2.5-0.4,3.5-1.1C65.4,24.5,65.7,24.2,65.8,23.8L65.8,23.8z M80.2,16.1l0.3-2.2
					c0.5-3.4-1.9-6.2-5.4-6.2c-3.5,0-6.6,2.8-7.1,6.2l-0.8,5.9c-0.5,3.5,2.3,6.2,5.7,6.2c2,0,4.1-0.7,5.5-2.3
					c0.2-0.2,0.3-0.4,0.3-0.6c0.1-0.5-0.4-0.9-0.9-0.9c-0.3,0-0.6,0.1-0.9,0.4c-1.1,1.2-2.6,1.5-3.8,1.5c-2.5,0-4.4-2-4-4.3l0.4-2.7
					h9.6C79.6,17,80.2,16.6,80.2,16.1L80.2,16.1z M78.5,15.1h-8.6l0.2-1.3c0.3-2.4,2.5-4.3,4.9-4.3c2.4,0,4.1,1.9,3.7,4.3L78.5,15.1
					z M93.3,9.9c0-0.2,0-0.4-0.2-0.7c-0.8-1-2.4-1.6-3.7-1.6c-3.7,0-6,2.9-6.5,6.4l-1.5,10.6c-0.1,0.6,0.4,1,0.8,1s1-0.3,1.1-1
					l1.5-10.6c0.4-2.9,2-4.5,4.3-4.5c0.9,0,1.8,0.3,2.4,0.9c0.1,0.1,0.1,0.1,0.1,0.1c0.2,0.2,0.4,0.3,0.6,0.3
					C92.7,10.8,93.2,10.4,93.3,9.9L93.3,9.9z"/>
				<path id="task" class="st1" d="M105.1,23.8c0.1-0.5-0.3-1-0.8-1c-0.7,0-1.5,1.1-3.3,1.1c-1.9,0-2.8-1.2-2.6-2.6l1.6-11.5h5.7
					c0.6,0,1-0.5,1.1-1c0.1-0.5-0.2-1-0.8-1h-5.7l0.5-4c0.1-0.6-0.3-1-0.8-1s-1,0.3-1.1,1l-0.5,4h-2.9c-0.6,0-1.1,0.5-1.1,1
					c-0.1,0.5,0.2,1,0.8,1h2.9l-1.6,11.5c-0.4,2.5,1.4,4.5,4.2,4.5c1.2,0,2.5-0.4,3.5-1.1C104.7,24.5,105,24.2,105.1,23.8
					L105.1,23.8z M117.5,20.4l1.1-7.3c0.4-3.2-1.3-5.5-5-5.5c-1.8,0-3.6,0.7-4.9,2c-0.3,0.3-0.5,0.6-0.6,0.9
					c-0.1,0.5,0.3,0.9,0.8,0.9c0.7,0,0.9-0.5,1.6-1c0.7-0.5,1.6-0.9,2.8-0.9c2.6,0,3.6,1.4,3.3,3.6l-0.2,1.5l-4.2,0.9
					c-3,0.6-5.9,2.2-6.3,5.3c-0.5,3.3,2,5.1,5.1,5.1C114.1,25.9,117.1,23.7,117.5,20.4L117.5,20.4z M115.6,20.4
					c-0.3,2.1-2.1,3.6-4.4,3.6c-2.3,0-3.7-1.3-3.4-3.2c0.2-1.6,1.9-2.9,4.1-3.4l4.3-0.9L115.6,20.4z M130.3,20.9
					c0.9-6.2-8.3-4.8-7.7-8.7c0.2-1.6,1.7-2.6,3.6-2.6c1.2,0,2.3,0.5,2.9,1.4c0.1,0.2,0.1,0.2,0.1,0.2c0.2,0.3,0.4,0.4,0.7,0.4
					c0.5,0,1.1-0.4,1.1-0.9c0-0.2,0-0.4-0.1-0.5c-0.8-1.6-2.7-2.5-4.5-2.5c-2.5,0-5.4,1.5-5.8,4.5c-0.8,5.8,8.4,4.2,7.7,8.7
					c-0.2,1.7-2,3.1-4.4,3.1c-1.2,0-2.3-0.4-3-1.2c-0.1-0.1-0.1-0.2-0.1-0.2c-0.2-0.3-0.4-0.4-0.7-0.4c-0.5,0-1,0.4-1.1,1
					c0,0.2,0,0.3,0.1,0.5c0.8,1.5,2.9,2.2,4.5,2.2C126.8,25.9,129.9,24,130.3,20.9L130.3,20.9z M144,24.6c0-0.2,0-0.4-0.2-0.6
					l-5.1-8.3l6.3-6.2c0.2-0.2,0.3-0.4,0.3-0.6c0.1-0.5-0.3-1-0.9-1c-0.2,0-0.5,0.1-0.8,0.4l-9,9l2.2-15.5c0.1-0.6-0.4-1-0.8-1
					c-0.5,0-1,0.3-1.1,1l-3.2,22.8c-0.1,0.6,0.4,1,0.8,1c0.5,0,1-0.3,1.1-1l0.6-4.4l2.9-2.9l4.9,7.9c0.2,0.3,0.4,0.4,0.7,0.4
					C143.3,25.6,143.9,25.2,144,24.6L144,24.6z"/>
			</g>
			<g id="MeisterTask_1_" sketch:type="MSShapeGroup">
				<circle id="BAdge" class="st2" cx="22" cy="22" r="22"/>
				<g id="Check" transform="translate(8.000000, 11.000000)">
					<path id="Fill-1" class="st3" d="M4,9.1l5.3,5.2L24,0l4,3.9L9.3,22l-9.3-9L4,9.1"/>
					<path id="Fill-2" class="st4" d="M5.3,18.1L4,16.8l1.3-1.3l1.3,1.3L5.3,18.1"/>
					<path id="Fill-3" class="st5" d="M4,16.8l-1.3-1.3L4,14.2l1.3,1.3L4,16.8"/>
					<path id="Fill-4" class="st6" d="M2.7,15.5l-1.3-1.3l1.3-1.3L4,14.2L2.7,15.5"/>
					<path id="Fill-5" class="st7" d="M1.3,14.2L0,12.9l1.3-1.3l1.3,1.3L1.3,14.2"/>
					<path id="Fill-6" class="st8" d="M6.7,16.8l-1.3-1.3l1.3-1.3L8,15.5L6.7,16.8"/>
					<path id="Fill-7" class="st9" d="M5.3,15.5L4,14.2l1.3-1.3l1.3,1.3L5.3,15.5"/>
					<path id="Fill-8" class="st10" d="M4,14.2l-1.3-1.3L4,11.6l1.3,1.3L4,14.2"/>
					<path id="Fill-9" class="st11" d="M2.7,12.9l-1.3-1.3l1.3-1.3L4,11.6L2.7,12.9"/>
					<path id="Fill-10" class="st12" d="M8,15.5l-1.3-1.3L8,12.9l1.3,1.3L8,15.5"/>
					<path id="Fill-11" class="st13" d="M6.7,14.2l-1.3-1.3l1.3-1.3L8,12.9L6.7,14.2"/>
					<path id="Fill-12" class="st14" d="M5.3,12.9L4,11.6l1.3-1.3l1.3,1.3L5.3,12.9"/>
					<path id="Fill-13" class="st15" d="M4,11.6l-1.3-1.3L4,9.1l1.3,1.3L4,11.6"/>
					<path id="Fill-14" class="st4" d="M9.3,22L8,20.7l1.3-1.3l1.3,1.3L9.3,22"/>
					<path id="Fill-15" class="st16" d="M10.7,20.7l-1.3-1.3l1.3-1.3l1.3,1.3L10.7,20.7"/>
					<path id="Fill-16" class="st17" d="M12,19.4l-1.3-1.3l1.3-1.3l1.3,1.3L12,19.4"/>
					<path id="Fill-17" class="st18" d="M13.3,18.1L12,16.8l1.3-1.3l1.3,1.3L13.3,18.1"/>
					<path id="Fill-18" class="st19" d="M14.7,16.8l-1.3-1.3l1.3-1.3l1.3,1.3L14.7,16.8"/>
					<path id="Fill-19" class="st20" d="M16,15.5l-1.3-1.3l1.3-1.3l1.3,1.3L16,15.5"/>
					<path id="Fill-20" class="st21" d="M17.3,14.2L16,12.9l1.3-1.3l1.3,1.3L17.3,14.2"/>
					<path id="Fill-21" class="st22" d="M18.7,12.9l-1.3-1.3l1.3-1.3l1.3,1.3L18.7,12.9"/>
					<path id="Fill-22" class="st23" d="M20,11.6l-1.3-1.3L20,9.1l1.3,1.3L20,11.6"/>
					<path id="Fill-23" class="st24" d="M21.3,10.4L20,9.1l1.3-1.3l1.3,1.3L21.3,10.4"/>
					<path id="Fill-24" class="st25" d="M22.7,9.1l-1.3-1.3l1.3-1.3L24,7.8L22.7,9.1"/>
					<path id="Fill-25" class="st26" d="M24,7.8l-1.3-1.3L24,5.2l1.3,1.3L24,7.8"/>
					<path id="Fill-26" class="st27" d="M25.3,6.5L24,5.2l1.3-1.3l1.3,1.3L25.3,6.5"/>
					<path id="Fill-27" class="st28" d="M26.7,5.2l-1.3-1.3l1.3-1.3L28,3.9L26.7,5.2"/>
					<path id="Fill-28" class="st29" d="M8,20.7l-1.3-1.3L8,18.1l1.3,1.3L8,20.7"/>
					<path id="Fill-29" class="st30" d="M9.3,19.4L8,18.1l1.3-1.3l1.3,1.3L9.3,19.4"/>
					<path id="Fill-30" class="st31" d="M10.7,18.1l-1.3-1.3l1.3-1.3l1.3,1.3L10.7,18.1"/>
					<path id="Fill-31" class="st32" d="M12,16.8l-1.3-1.3l1.3-1.3l1.3,1.3L12,16.8"/>
					<path id="Fill-32" class="st33" d="M13.3,15.5L12,14.2l1.3-1.3l1.3,1.3L13.3,15.5"/>
					<path id="Fill-33" class="st34" d="M14.7,14.2l-1.3-1.3l1.3-1.3l1.3,1.3L14.7,14.2"/>
					<path id="Fill-34" class="st35" d="M16,12.9l-1.3-1.3l1.3-1.3l1.3,1.3L16,12.9"/>
					<path id="Fill-35" class="st36" d="M17.3,11.6L16,10.4l1.3-1.3l1.3,1.3L17.3,11.6"/>
					<path id="Fill-36" class="st37" d="M18.7,10.4l-1.3-1.3l1.3-1.3L20,9.1L18.7,10.4"/>
					<path id="Fill-37" class="st38" d="M20,9.1l-1.3-1.3L20,6.5l1.3,1.3L20,9.1"/>
					<path id="Fill-38" class="st39" d="M21.3,7.8L20,6.5l1.3-1.3l1.3,1.3L21.3,7.8"/>
					<path id="Fill-39" class="st40" d="M22.7,6.5l-1.3-1.3l1.3-1.3L24,5.2L22.7,6.5"/>
					<path id="Fill-40" class="st41" d="M24,5.2l-1.3-1.3L24,2.6l1.3,1.3L24,5.2"/>
					<path id="Fill-41" class="st42" d="M25.3,3.9L24,2.6l1.3-1.3l1.3,1.3L25.3,3.9"/>
					<path id="Fill-42" class="st43" d="M6.7,19.4l-1.3-1.3l1.3-1.3L8,18.1L6.7,19.4"/>
					<path id="Fill-43" class="st44" d="M8,18.1l-1.3-1.3L8,15.5l1.3,1.3L8,18.1"/>
					<path id="Fill-44" class="st45" d="M9.3,16.8L8,15.5l1.3-1.3l1.3,1.3L9.3,16.8"/>
					<path id="Fill-45" class="st46" d="M10.7,15.5l-1.3-1.3l1.3-1.3l1.3,1.3L10.7,15.5"/>
					<path id="Fill-46" class="st47" d="M12,14.2l-1.3-1.3l1.3-1.3l1.3,1.3L12,14.2"/>
					<path id="Fill-47" class="st48" d="M13.3,12.9L12,11.6l1.3-1.3l1.3,1.3L13.3,12.9"/>
					<path id="Fill-48" class="st49" d="M14.7,11.6l-1.3-1.3l1.3-1.3l1.3,1.3L14.7,11.6"/>
					<path id="Fill-49" class="st50" d="M16,10.4l-1.3-1.3L16,7.8l1.3,1.3L16,10.4"/>
					<path id="Fill-50" class="st51" d="M17.3,9.1L16,7.8l1.3-1.3l1.3,1.3L17.3,9.1"/>
					<path id="Fill-51" class="st52" d="M18.7,7.8l-1.3-1.3l1.3-1.3L20,6.5L18.7,7.8"/>
					<path id="Fill-52" class="st53" d="M20,6.5l-1.3-1.3L20,3.9l1.3,1.3L20,6.5"/>
					<path id="Fill-53" class="st54" d="M21.3,5.2L20,3.9l1.3-1.3l1.3,1.3L21.3,5.2"/>
					<path id="Fill-54" class="st55" d="M22.7,3.9l-1.3-1.3l1.3-1.3L24,2.6L22.7,3.9"/>
					<path id="Fill-55" class="st56" d="M24,2.6l-1.3-1.3L24,0l1.3,1.3L24,2.6"/>
				</g>
			</g>
		</g>
	</g>
</g>
</svg>
